PathFileType	4	(X/Y/Z)	48_2_90_p1_0-271.trc
DataRate	CameraRate	NumFrames	NumMarkers	Units	OrigDataRate	OrigDataStartFrame	OrigNumFrames
47.0	47.0	6	27	m	47.0	136	272
Frame#	Time	RHip			RKnee			RAnkle			RBigToe			RSmallToe			RHeel			LHip			LKnee			LAnkle			LBigToe			LSmallToe			LHeel			Neck			Head			Nose			RShoulder			RElbow			RWrist			RThumb			RIndex			RPinky			LShoulder			LElbow			LWrist			LThumb			LIndex			LPinky			
		X1	Y1	Z1	X2	Y2	Z2	X3	Y3	Z3	X4	Y4	Z4	X5	Y5	Z5	X6	Y6	Z6	X7	Y7	Z7	X8	Y8	Z8	X9	Y9	Z9	X10	Y10	Z10	X11	Y11	Z11	X12	Y12	Z12	X13	Y13	Z13	X14	Y14	Z14	X15	Y15	Z15	X16	Y16	Z16	X17	Y17	Z17	X18	Y18	Z18	X19	Y19	Z19	X20	Y20	Z20	X21	Y21	Z21	X22	Y22	Z22	X23	Y23	Z23	X24	Y24	Z24	X25	Y25	Z25	X26	Y26	Z26	X27	Y27	Z27	
136	2.893617021276596	0.2110105372430345	0.4355736351890576	0.6632792650092599	0.19493299371431344	0.5660023237019977	1.0878640837216447	0.15986026789636437	0.6785827104652639	1.524880131781149	0.09111130118410721	0.47683385705424497	1.555694186663902	0.1670352457964034	0.46780934102847455	1.554235328673037	0.14162089962435004	0.7923647796448134	1.5890856261286468	-0.011116714021458803	0.4660542912069146	0.6433110870253292	-0.0246742786580342	0.5863718084971755	1.0836853288293435	-0.039288956910158705	0.6742849178938289	1.4814276617811122	-0.04674478167828053	0.477808008551348	1.5282529126171407	-0.09321903521159491	0.5103746884719896	1.5218780461928016	-0.016252854108800188	0.7544168552993783	1.5669782528431864	0.12470957122218772	0.4016410455822808	0.0008777698939121809	0.13138257268971557	0.3039000267170424	-0.2596107538896989	0.10514248922097633	0.22660016816741532	-0.10816417779612944	0.3083725753421096	0.39178147975946775	0.13209259749501798	0.3474424270389751	0.4111771390431492	0.41576182217016255	0.33918468688830894	0.41908510274551625	0.69902531510145	0.25876030150068463	0.4159194823832923	0.8016413337720598	0.2690616772632969	0.38789451958510074	0.8209992658202924	0.3153259827581972	0.41127935546718186	0.8260010839806409	-0.055276959705988206	0.4396806014440001	0.07756575178378416	-0.12083098545342354	0.51816264326166	0.3759018480960885	-0.14006518200796672	0.5338322864360893	0.6564214210927274	-0.09944117941811578	0.4612845258444671	0.7465845413365934	-0.13056225701514235	0.46146096946676896	0.7627167671049069	-0.15479258052979394	0.5334572931128808	0.7771803735678817
137	2.9148936170212765	0.21166444025227343	0.4370496567967972	0.6672458080834269	0.19586412169640327	0.5677560038504209	1.0924246633177976	0.15990957316326626	0.6784851146836373	1.5249419326129936	0.09210774303051342	0.47868767532376344	1.5613541595692195	0.1671244063988856	0.4680244400727262	1.5542910597782358	0.14153866169726678	0.7919664068470248	1.5887147266090276	-0.01070954927286482	0.467433625421667	0.6479275167352914	-0.023633766907829624	0.6012955524194177	1.0884885002129334	-0.039310200832661804	0.6743319614430943	1.4815557094971716	-0.050557946250305796	0.46415047328287995	1.521637074580828	-0.0968190100508242	0.5250092842841908	1.5285806151491772	-0.021001572331079767	0.7400671064786675	1.560434074433764	0.12472369476851479	0.40174333352057606	0.0009127892262066858	0.13148850618496608	0.3040047422069471	-0.2564207453817283	0.10517973566314433	0.22650822123934508	-0.10812426314839216	0.30832674473962723	0.3918994868829902	0.1320901254882135	0.34746217735746954	0.4112432252999233	0.4158456300063349	0.339890321019132	0.4203312024454706	0.7032813828995153	0.2608991350285592	0.4011848454397383	0.8017669361277793	0.2706809016844756	0.37372252979122855	0.8177795337324743	0.31496954587067105	0.410833615907292	0.8262325026854404	-0.051374775386365645	0.4511510505975938	0.07748457131114422	-0.120384745265329	0.5184065641873845	0.3687437133870075	-0.14422979851549136	0.533122905578801	0.6559715358858381	-0.10661011214474173	0.4727765037123779	0.7486135506916286	-0.12837222544369084	0.4488642469597022	0.7630721961784004	-0.15967957275894665	0.5327928891451904	0.7768026084771068
138	2.9361702127659575	0.2109898074151563	0.4354287756954218	0.663394850312037	0.19584942742071082	0.5679622373094669	1.092443363833205	0.1600033651852429	0.6792453412225801	1.521119221065956	0.10382744627860406	0.47763472330354595	1.5596763915396514	0.17171096142407066	0.48195685519504783	1.5584778709929175	0.13585727073057183	0.7754378283407948	1.5812815260285182	-0.011126356466924187	0.46627964507177516	0.6433668788150263	-0.023454340181481514	0.6013120903749054	1.0884082725661846	-0.039398484403645476	0.6744773177295443	1.4815925703768666	-0.05558594492689044	0.4639790201367544	1.5214316737756497	-0.09693816400834729	0.5250851474217486	1.5287825888049398	-0.026506405773332797	0.7368479713741224	1.5591622740844426	0.12489358520656643	0.4028585134039162	0.004496715542753231	0.13596516317991655	0.3156504391643305	-0.26032988078143643	0.10532079191465664	0.22651856927175382	-0.10807088102240757	0.3082391320235119	0.39177354925111185	0.13211551999905918	0.3473365852185239	0.41097718188265886	0.41566966573178027	0.33909033896950913	0.41896429127754603	0.6991026619681928	0.26031111976727433	0.40121810442623485	0.8054231593830623	0.27072405486292955	0.37374435985233145	0.8179164852373905	0.31499530031726397	0.4106178394543041	0.8261458061513195	-0.05133886031669203	0.4509953584145563	0.07738756970951051	-0.12481594692752493	0.5186762876086103	0.3721216983192325	-0.14836457090131228	0.5199872277644587	0.6497116559770417	-0.11168231061386308	0.47073960573937823	0.748042429068157	-0.14385360424545615	0.4341536095874783	0.7620815177418536	-0.1651537310926645	0.5187232963273082	0.7796871816267922
139	2.9574468085106385	0.2110301826147887	0.4354172968914757	0.6634416520813553	0.19499935713492228	0.5662286945078061	1.0880833851598706	0.15993825542987183	0.678268614951195	1.5250573321878826	0.10379996999362806	0.4769036270898765	1.5629041519829154	0.17179178019925417	0.48207755073227243	1.5584008796133548	0.13588286828734641	0.7753549438126329	1.5814396217544053	-0.015152889577718726	0.4793518461109152	0.6489592087393343	-0.01904824811517006	0.6017785983210943	1.0888264345042789	-0.038498952357359825	0.676610619050866	1.487436722204811	-0.05067804345113979	0.4642699124990276	1.5219030549450383	-0.09693632661628457	0.5250730977503073	1.5287665670745492	-0.02647969771535799	0.7369398637328076	1.5593682689016355	0.12513643651752232	0.40295574128862893	-0.0021074629275343445	0.13612832360111538	0.31580696083303084	-0.2601325797932731	0.11131025373519818	0.21641623182595524	-0.10708196303613997	0.30828573079678323	0.3918195374769672	0.13207514070217263	0.347407779354561	0.4107737801971233	0.4156515177024212	0.33909466245490905	0.41876613398290424	0.6990043151759159	0.2602722253621836	0.40040186389922106	0.8084142236574635	0.27068843245329716	0.372909733550892	0.8179425533718928	0.3145044192352345	0.4100803032356182	0.826237710190569	-0.05141440905151934	0.45076941442981433	0.077342528257922	-0.12834768585834708	0.5321661542864469	0.3735004499629394	-0.1603037997071818	0.5062254258420164	0.6509061042276866	-0.1206551138651896	0.45845187935238013	0.7485572821510968	-0.15406094964325318	0.42017348234712837	0.7579768308331081	-0.17437047038492676	0.4895294186470153	0.7767389844671919
140	2.978723404255319	0.21101969385076358	0.4355611063596964	0.6633762457816026	0.1950065047025596	0.5660158441430462	1.0877714145978987	0.15994001385518766	0.6784320165625769	1.5251231801957266	0.10633049032804812	0.505444303965352	1.576752264569638	0.17183172757822324	0.48225296746088575	1.558561777482871	0.1358439993212276	0.7755122280361415	1.5813191929250685	-0.01928406481622506	0.47935075409432054	0.6487267210431625	-0.02357620233856294	0.6020984720784794	1.0886744807744082	-0.03854409075426911	0.6765160020875947	1.4874553212051818	-0.05071589891470654	0.4642985999046724	1.5219284611075596	-0.09636415390539929	0.5270108123261428	1.5348302353790515	-0.026529474925287944	0.736643020795793	1.5589771029288337	0.12518723455312195	0.40294220763121485	-0.0021736874979257203	0.13809932060410815	0.3043404248523981	-0.258697012389283	0.11134453931864866	0.21640220481591138	-0.10706470102081143	0.3083658107515642	0.39200229020424987	0.13202848645959664	0.3473813704538979	0.4107654293951103	0.4155101307184317	0.3435967869988782	0.41838801186251295	0.695190832942087	0.2572308477050093	0.3746672716132638	0.8023713423395876	0.27229301534514583	0.35871672961492457	0.8144700506288257	0.3091969618414699	0.39936402526196746	0.8234692984404267	-0.051268353274356145	0.45106079158754325	0.07740165701330914	-0.12504358220058012	0.518828103305543	0.3761580472807262	-0.1604487638622952	0.5062056412953961	0.6508476582887858	-0.12928751396357877	0.43399513637278325	0.746026092459052	-0.1618575191082008	0.4197529206570198	0.7604446933684588	-0.17752644668332676	0.4754855140643523	0.7702680252621958
141	3.0	0.2099207154233092	0.43434195470281894	0.6632328704111962	0.19500797561045588	0.5664906760675212	1.0879909887267158	0.16007255640531656	0.6794664981014461	1.5213582740917877	0.10922436726330627	0.49069517065197826	1.566567489826153	0.17179863102374884	0.4822598449968736	1.558665031441706	0.13590588709639392	0.7757163586901241	1.5815323697696664	-0.019150834358319595	0.4796478078627121	0.6450286170118505	-0.019161929415452375	0.6024424653894402	1.0890094394057062	-0.03935450092225404	0.6745693431761599	1.4815971580338374	-0.04683567277705989	0.477768711746493	1.5284734422682118	-0.09624948778448596	0.5267997874436874	1.5345745723232755	-0.026569518982025673	0.7369994210396752	1.5596146488247442	0.12522232179350373	0.40302674437009123	-0.0021478300082074814	0.13815151570203832	0.30442702802085725	-0.25874574429152347	0.11141190069679045	0.2164025841211533	-0.10703401140827283	0.30835947997732643	0.3919295527995718	0.13205531913177307	0.3473634589021748	0.41071912221352347	0.41559067403370253	0.3436824597859338	0.4178952930174217	0.6948548106463608	0.25954353780592576	0.36071530262905677	0.7991860649681967	0.2724105032918379	0.3580076880778883	0.8142731607244477	0.31317692695832233	0.42438971571645817	0.8293610628702937	-0.05115805284878026	0.4513690209396516	0.0773185117834774	-0.12493333878321737	0.5185693781597068	0.37225177585132846	-0.1649154998559761	0.4932499230961171	0.644601858715858	-0.12953218858812005	0.43389639935818386	0.7459026302766616	-0.16249397039123187	0.42132108341224045	0.7656554554933201	-0.18327905604672942	0.47566567438932905	0.7736385721258631
